<svg xmlns="http://www.w3.org/2000/svg" xmlns:xlink="http://www.w3.org/1999/xlink" id="Layer_1" data-name="Layer 1" viewBox="0 0 212.6 212.6" style="&#10;"><defs><style>.cls-1{fill:none;}.cls-2{clip-path:url(#clip-path);}.cls-3{fill:#fff;}</style><clipPath id="clip-path"><rect class="cls-1" x="-427" y="-348.4" width="908" height="908"/></clipPath></defs><g class="cls-2"><path class="cls-3" d="M124.69,99.34v13.42H197a91.16,91.16,0,0,1-90.79,84.32c-49.81,0-88.83-40-88.83-91s39-91,88.83-91a91.27,91.27,0,0,1,62.41,24.77L144,62.35a57.94,57.94,0,0,0-37.78-14.07c-31.16,0-55.56,25.37-55.56,57.77s24.4,57.77,55.56,57.77a57.5,57.5,0,0,0,48.94-27.07h0l-11.35-7.13a44.81,44.81,0,0,1-5.56,7.13,44.1,44.1,0,0,1-32,13.66c-24,0-42.15-19.07-42.15-44.35s18.12-44.36,42.15-44.36A44.49,44.49,0,0,1,139,76.09L143.48,81l44.31-40.58-4.53-5a104.74,104.74,0,0,0-77-33.9C48.91,1.6,4,47.48,4,106.05S48.91,210.5,106.24,210.5A104.57,104.57,0,0,0,210.69,106.05V99.34Z"/></g></svg>
