<svg xmlns="http://www.w3.org/2000/svg" xmlns:xlink="http://www.w3.org/1999/xlink" id="Layer_1" data-name="Layer 1" viewBox="0 0 765.35 212.6">
<defs>
<style>.cls-1{fill:none;}.cls-2{clip-path:url(#clip-path);}.cls-3{fill:#019d5f;}</style>
<clipPath id="clip-path"><rect class="cls-1" x="-427" y="-348.4" width="1618" height="908"/></clipPath>
</defs>
<g class="cls-2">
  <path class="cls-3" d="M124.69,99.34v13.42H197a91.16,91.16,0,0,1-90.79,84.32c-49.81,0-88.83-40-88.83-91s39-91,88.83-91a91.27,91.27,0,0,1,62.41,24.77L144,62.35a57.94,57.94,0,0,0-37.78-14.07c-31.16,0-55.56,25.37-55.56,57.77s24.4,57.77,55.56,57.77a57.5,57.5,0,0,0,48.94-27.07h0l-11.35-7.13a44.81,44.81,0,0,1-5.56,7.13,44.1,44.1,0,0,1-32,13.66c-24,0-42.15-19.07-42.15-44.35s18.12-44.36,42.15-44.36A44.49,44.49,0,0,1,139,76.09L143.48,81l44.31-40.58-4.53-5a104.74,104.74,0,0,0-77-33.9C48.91,1.6,4,47.48,4,106.05S48.91,210.5,106.24,210.5A104.57,104.57,0,0,0,210.69,106.05V99.34Z"/>
  <path class="cls-3" d="M300.88,102.28v10.63h22.17l-.14.62c-2.23,9.2-9.64,14.91-19.34,14.91-12.15,0-21.31-9.2-21.31-21.41,0-12,9-21.32,20.56-21.32,8.83,0,15,3.56,19,10.86l10.56-3.72c-4.19-11.21-15.47-18.15-29.56-18.15A32.07,32.07,0,0,0,270.31,107c0,18.13,14.45,32.33,32.89,32.33,18.19,0,31.39-13.52,31.39-32.14,0-1.36-.08-3-.24-4.94Z"/>
  <path class="cls-3" d="M356.32,100.47l-.9,1.31V92.15H344V138h11.39v-14.6c0-13.65,5.78-20.57,17.18-20.57h2.25l.61-11a10.11,10.11,0,0,0-2.76-.24c-6.76,0-12.27,3-16.38,9"/>
  <path class="cls-3" d="M390.82,110.15l.16-.62c1.59-6.18,7.35-9,12-9,5.82,0,10,3.28,11.55,9l.17.62ZM403,90.74c-13.51,0-23.7,10.47-23.7,24.36s10.11,24.26,23.52,24.26c10.27,0,18.05-4.82,22-13.59l-10.12-2.14c-3.32,5.37-7.66,6.12-11.87,6.12-6.09,0-11-4.53-12.22-11.28l-.1-.59h35.74v-3.72c-.45-13.35-10.43-23.42-23.24-23.42"/>
  <path class="cls-3" d="M444.37,110.15l.16-.62c1.6-6.18,7.35-9,12-9,5.82,0,10,3.28,11.55,9l.16.62Zm12.18-19.41c-13.51,0-23.7,10.47-23.7,24.36s10.11,24.26,23.51,24.26c10.27,0,18.06-4.82,22-13.59l-10.13-2.14c-3.31,5.37-7.66,6.12-11.87,6.12-6.08,0-11-4.53-12.21-11.28l-.11-.59h35.74v-3.72c-.44-13.35-10.43-23.42-23.23-23.42"/>
  <path class="cls-3" d="M514.89,90.74c-5.9,0-10.74,1.84-14.38,5.48l-.84.85V92.15H488.28V138h11.39V117.72c0-13.74,6.59-16.62,12.12-16.62,6,0,10,4.6,10,11.46V138h11.39v-28c0-11.48-7.34-19.2-18.26-19.2"/><path class="cls-3" d="M592.82,101.25l11.43-3.2C601,83.85,589.17,74.7,573.88,74.7a32.33,32.33,0,1,0,0,64.66c15.46,0,27.32-9.5,30.37-24.25l-11.42-2.34c-2.3,10-9.18,15.67-19,15.67-11.58,0-20.66-9.4-20.66-21.41s9.08-21.32,20.66-21.32c9.75,0,16.62,5.66,18.94,15.54"/>
  <path class="cls-3" d="M640.22,119.5c0,6.07-5.73,11-12.78,11-5.06,0-8.47-2.49-8.47-6.21,0-3.5,2.84-5.85,7.07-5.85h14.18ZM631,90.74c-10.23,0-18.29,5.73-20.23,14.31l10.85,2.15c1.1-4.55,4.42-6.76,10.13-6.76,5.07,0,8.47,3.36,8.47,8.37v1.25h-14c-11.15,0-18.07,5.56-18.07,14.51s7,14.79,17.32,14.79c5.66,0,10.46-1.77,13.91-5.11l.84-.82V138h10.83V107.87c0-10.72-7.5-17.13-20-17.13"/>
  <path class="cls-3" d="M684.56,129.57a14,14,0,0,1-13.82-14.47c0-9.12,7-14.57,13.82-14.57,8,0,13.62,6,13.62,14.57s-5.6,14.47-13.62,14.47m2.16-38.83c-6.24,0-11.34,1.79-15.14,5.31l-.84.77V92.15H659.36v68.31h11.38V133.28l.84.77c3.81,3.52,8.9,5.31,15.14,5.31,11,0,22.47-9.08,22.47-24.26s-11.42-24.36-22.47-24.36"/>
  <path class="cls-3" d="M725.47,110.15l.16-.62c1.6-6.18,7.35-9,12-9,5.82,0,10,3.28,11.54,9l.17.62Zm12.18-19.41c-13.51,0-23.7,10.47-23.7,24.36s10.1,24.26,23.51,24.26c10.27,0,18.06-4.82,22-13.59l-10.13-2.14c-3.31,5.37-7.66,6.12-11.87,6.12-6.09,0-11-4.53-12.21-11.28l-.11-.59h35.74v-3.72c-.44-13.35-10.43-23.42-23.23-23.42"/>
</g>
</svg>
